<svg width="20" height="21" viewBox="0 0 20 21" fill="none" xmlns="http://www.w3.org/2000/svg">
<path d="M16.5089 7.59818L12.7429 3.83224C11.9531 3.04247 10.8641 2.61849 9.75011 2.67668L5.59343 2.8762C3.93076 2.95102 2.60894 4.27284 2.52581 5.9272L2.32629 10.0839C2.27641 11.1979 2.69208 12.2869 3.48184 13.0767L7.24779 16.8426C8.79407 18.3889 11.3047 18.3889 12.8593 16.8426L16.5089 13.1931C18.0635 11.6551 18.0635 9.14447 16.5089 7.59818ZM7.92117 10.6575C6.60766 10.6575 5.52693 9.58507 5.52693 8.26325C5.52693 6.94143 6.60766 5.86901 7.92117 5.86901C9.23468 5.86901 10.3154 6.94143 10.3154 8.26325C10.3154 9.58507 9.23468 10.6575 7.92117 10.6575ZM14.5968 11.6135L11.2715 14.9389C11.1468 15.0636 10.9888 15.1218 10.8308 15.1218C10.6729 15.1218 10.5149 15.0636 10.3902 14.9389C10.1492 14.6978 10.1492 14.2987 10.3902 14.0577L13.7156 10.7323C13.9567 10.4912 14.3557 10.4912 14.5968 10.7323C14.8379 10.9734 14.8379 11.3724 14.5968 11.6135Z" fill="black" fill-opacity="0.7"/>
</svg>
