<svg width="12" height="13" viewBox="0 0 12 13" fill="none" xmlns="http://www.w3.org/2000/svg">
<path fill-rule="evenodd" clip-rule="evenodd" d="M6.50003 7C6.50003 7.276 6.27603 7.5 6.00003 7.5C5.72403 7.5 5.50003 7.276 5.50003 7V5C5.50003 4.724 5.72403 4.5 6.00003 4.5C6.27603 4.5 6.50003 4.724 6.50003 5V7ZM6.00003 9C5.72403 9 5.50003 8.776 5.50003 8.5C5.50003 8.224 5.72403 8 6.00003 8C6.27603 8 6.50003 8.224 6.50003 8.5C6.50003 8.776 6.27603 9 6.00003 9ZM11.2805 8.6515L7.44453 2.292C7.14503 1.796 6.60503 1.5 6.00003 1.5C5.39503 1.5 4.85503 1.796 4.55553 2.292L0.719529 8.6515C0.435529 9.123 0.427029 9.69 0.697029 10.168C0.986529 10.6815 1.54903 11 2.16403 11H9.83603C10.451 11 11.0135 10.6815 11.303 10.168C11.573 9.69 11.5645 9.123 11.2805 8.6515Z" fill="white"/>
<mask id="mask0_2661_20281" style="mask-type:luminance" maskUnits="userSpaceOnUse" x="0" y="1" width="12" height="10">
<path fill-rule="evenodd" clip-rule="evenodd" d="M6.50003 7C6.50003 7.276 6.27603 7.5 6.00003 7.5C5.72403 7.5 5.50003 7.276 5.50003 7V5C5.50003 4.724 5.72403 4.5 6.00003 4.5C6.27603 4.5 6.50003 4.724 6.50003 5V7ZM6.00003 9C5.72403 9 5.50003 8.776 5.50003 8.5C5.50003 8.224 5.72403 8 6.00003 8C6.27603 8 6.50003 8.224 6.50003 8.5C6.50003 8.776 6.27603 9 6.00003 9ZM11.2805 8.6515L7.44453 2.292C7.14503 1.796 6.60503 1.5 6.00003 1.5C5.39503 1.5 4.85503 1.796 4.55553 2.292L0.719529 8.6515C0.435529 9.123 0.427029 9.69 0.697029 10.168C0.986529 10.6815 1.54903 11 2.16403 11H9.83603C10.451 11 11.0135 10.6815 11.303 10.168C11.573 9.69 11.5645 9.123 11.2805 8.6515Z" fill="white"/>
</mask>
<g mask="url(#mask0_2661_20281)">
<rect y="0.5" width="12" height="12" fill="white"/>
</g>
</svg>
