<svg width="16" height="16" viewBox="0 0 16 16" fill="none" xmlns="http://www.w3.org/2000/svg">
<path d="M7.99868 0.997559C4.14796 0.997559 0.997376 4.14814 0.997376 7.99886C0.997376 9.60916 1.55748 11.1494 2.60768 12.4097L1.20741 13.8099C0.927362 14.09 0.927362 14.5101 1.20741 14.7901C1.34744 14.9302 1.48747 15.0002 1.69751 15.0002H7.99868C11.8494 15.0002 15 11.8496 15 7.99886C15 4.14814 11.8494 0.997559 7.99868 0.997559ZM8.69881 10.0993H4.49803C4.07795 10.0993 3.7979 9.8192 3.7979 9.39912C3.7979 8.97904 4.07795 8.69899 4.49803 8.69899H8.69881C9.11889 8.69899 9.39894 8.97904 9.39894 9.39912C9.39894 9.8192 9.11889 10.0993 8.69881 10.0993ZM11.4993 7.29873H4.49803C4.07795 7.29873 3.7979 7.01868 3.7979 6.5986C3.7979 6.17852 4.07795 5.89847 4.49803 5.89847H11.4993C11.9194 5.89847 12.1995 6.17852 12.1995 6.5986C12.1995 7.01868 11.9194 7.29873 11.4993 7.29873Z" fill="black" fill-opacity="0.6"/>
</svg>
