<svg width="23" height="23" viewBox="0 0 23 23" fill="none" xmlns="http://www.w3.org/2000/svg">
<g opacity="0.8">
<path fill-rule="evenodd" clip-rule="evenodd" d="M8.9065 20.1248C7.31949 20.1248 5.81108 19.4866 4.65916 18.328C2.37066 16.0251 2.27675 12.3738 4.44929 10.1879L11.5275 3.06746C12.2645 2.32571 13.2592 1.9165 14.3278 1.9165C15.4711 1.9165 16.5578 2.37555 17.3868 3.2093C19.0361 4.86817 19.0993 7.50455 17.5267 9.0858L10.4398 16.2053C9.98079 16.6681 9.36266 16.9221 8.69949 16.9221C7.99895 16.9221 7.33483 16.6423 6.83074 16.1353C5.82162 15.1185 5.79 13.498 6.76079 12.5205L13.3014 5.95109C13.6752 5.57542 14.2808 5.5735 14.6565 5.94725C15.0312 6.321 15.0331 6.92763 14.6594 7.30234L8.1197 13.8727C7.8897 14.1046 7.92133 14.5138 8.19062 14.784C8.33054 14.9249 8.51645 15.0054 8.69949 15.0054C8.80491 15.0054 8.95633 14.9795 9.08091 14.854L16.1678 7.73455C16.9987 6.89792 16.9364 5.4748 16.0279 4.56055C15.1587 3.68655 13.6838 3.61755 12.8865 4.41871L5.8082 11.5391C4.37645 12.9795 4.47037 15.4194 6.01904 16.9767C6.80775 17.7712 7.83316 18.2082 8.9065 18.2082C9.86579 18.2082 10.7551 17.8459 11.4087 17.1885L18.4879 10.0681C18.8607 9.69338 19.4673 9.6905 19.843 10.0643C20.2177 10.438 20.2196 11.0437 19.8468 11.4193L12.7676 18.5398C11.7518 19.5613 10.3804 20.1248 8.9065 20.1248Z" fill="white"/>
<mask id="mask0_2661_20046" style="mask-type:luminance" maskUnits="userSpaceOnUse" x="2" y="1" width="19" height="20">
<path fill-rule="evenodd" clip-rule="evenodd" d="M8.9065 20.1248C7.31949 20.1248 5.81108 19.4866 4.65916 18.328C2.37066 16.0251 2.27675 12.3738 4.44929 10.1879L11.5275 3.06746C12.2645 2.32571 13.2592 1.9165 14.3278 1.9165C15.4711 1.9165 16.5578 2.37555 17.3868 3.2093C19.0361 4.86817 19.0993 7.50455 17.5267 9.0858L10.4398 16.2053C9.98079 16.6681 9.36266 16.9221 8.69949 16.9221C7.99895 16.9221 7.33483 16.6423 6.83074 16.1353C5.82162 15.1185 5.79 13.498 6.76079 12.5205L13.3014 5.95109C13.6752 5.57542 14.2808 5.5735 14.6565 5.94725C15.0312 6.321 15.0331 6.92763 14.6594 7.30234L8.1197 13.8727C7.8897 14.1046 7.92133 14.5138 8.19062 14.784C8.33054 14.9249 8.51645 15.0054 8.69949 15.0054C8.80491 15.0054 8.95633 14.9795 9.08091 14.854L16.1678 7.73455C16.9987 6.89792 16.9364 5.4748 16.0279 4.56055C15.1587 3.68655 13.6838 3.61755 12.8865 4.41871L5.8082 11.5391C4.37645 12.9795 4.47037 15.4194 6.01904 16.9767C6.80775 17.7712 7.83316 18.2082 8.9065 18.2082C9.86579 18.2082 10.7551 17.8459 11.4087 17.1885L18.4879 10.0681C18.8607 9.69338 19.4673 9.6905 19.843 10.0643C20.2177 10.438 20.2196 11.0437 19.8468 11.4193L12.7676 18.5398C11.7518 19.5613 10.3804 20.1248 8.9065 20.1248Z" fill="white"/>
</mask>
<g mask="url(#mask0_2661_20046)">
<rect width="23" height="23" fill="white"/>
</g>
</g>
</svg>
