<svg width="20" height="20" viewBox="0 0 20 20" fill="none" xmlns="http://www.w3.org/2000/svg">
<path fill-rule="evenodd" clip-rule="evenodd" d="M13.3334 9.1665H10.8334V6.6665C10.8334 6.20567 10.46 5.83317 10 5.83317C9.54002 5.83317 9.16669 6.20567 9.16669 6.6665V9.99984C9.16669 10.4607 9.54002 10.8332 10 10.8332H13.3334C13.7942 10.8332 14.1667 10.4607 14.1667 9.99984C14.1667 9.539 13.7942 9.1665 13.3334 9.1665ZM10 16.6665C6.32419 16.6665 3.33335 13.6757 3.33335 9.99984C3.33335 6.324 6.32419 3.33317 10 3.33317C13.6759 3.33317 16.6667 6.324 16.6667 9.99984C16.6667 13.6757 13.6759 16.6665 10 16.6665ZM10 1.6665C5.40502 1.6665 1.66669 5.40484 1.66669 9.99984C1.66669 14.5948 5.40502 18.3332 10 18.3332C14.595 18.3332 18.3334 14.5948 18.3334 9.99984C18.3334 5.40484 14.595 1.6665 10 1.6665Z" fill="black" fill-opacity="0.4"/>
<mask id="mask0_2661_20308" style="mask-type:luminance" maskUnits="userSpaceOnUse" x="1" y="1" width="18" height="18">
<path fill-rule="evenodd" clip-rule="evenodd" d="M13.3334 9.1665H10.8334V6.6665C10.8334 6.20567 10.46 5.83317 10 5.83317C9.54002 5.83317 9.16669 6.20567 9.16669 6.6665V9.99984C9.16669 10.4607 9.54002 10.8332 10 10.8332H13.3334C13.7942 10.8332 14.1667 10.4607 14.1667 9.99984C14.1667 9.539 13.7942 9.1665 13.3334 9.1665ZM10 16.6665C6.32419 16.6665 3.33335 13.6757 3.33335 9.99984C3.33335 6.324 6.32419 3.33317 10 3.33317C13.6759 3.33317 16.6667 6.324 16.6667 9.99984C16.6667 13.6757 13.6759 16.6665 10 16.6665ZM10 1.6665C5.40502 1.6665 1.66669 5.40484 1.66669 9.99984C1.66669 14.5948 5.40502 18.3332 10 18.3332C14.595 18.3332 18.3334 14.5948 18.3334 9.99984C18.3334 5.40484 14.595 1.6665 10 1.6665Z" fill="white"/>
</mask>
<g mask="url(#mask0_2661_20308)">
<rect width="20" height="20" fill="black" fill-opacity="0.4"/>
</g>
</svg>
