<svg width="20" height="21" viewBox="0 0 20 21" fill="none" xmlns="http://www.w3.org/2000/svg">
<path fill-rule="evenodd" clip-rule="evenodd" d="M13.3331 11.0044C12.8731 11.0044 12.4998 10.631 12.4998 10.171C12.4998 9.71102 12.8731 9.33769 13.3331 9.33769C13.7931 9.33769 14.1664 9.71102 14.1664 10.171C14.1664 10.631 13.7931 11.0044 13.3331 11.0044ZM9.99975 11.0044C9.53975 11.0044 9.16642 10.631 9.16642 10.171C9.16642 9.71102 9.53975 9.33769 9.99975 9.33769C10.4598 9.33769 10.8331 9.71102 10.8331 10.171C10.8331 10.631 10.4598 11.0044 9.99975 11.0044ZM6.66642 11.0044C6.20642 11.0044 5.83309 10.631 5.83309 10.171C5.83309 9.71102 6.20642 9.33769 6.66642 9.33769C7.12642 9.33769 7.49975 9.71102 7.49975 10.171C7.49975 10.631 7.12642 11.0044 6.66642 11.0044ZM15.8923 4.27852C13.9889 2.37519 11.3548 1.52602 8.66392 1.94185C5.26642 2.47185 2.44975 5.20852 1.81392 8.59769C1.50809 10.2294 1.68392 11.891 2.32309 13.4019C2.40475 13.5935 2.42975 13.7735 2.39725 13.9344L1.68309 17.5077C1.62809 17.781 1.71392 18.0635 1.91059 18.2602C2.06809 18.4177 2.28059 18.5044 2.49975 18.5044C2.55392 18.5044 2.60892 18.4994 2.66309 18.4877L6.23225 17.7744C6.43725 17.7352 6.63642 17.7927 6.76892 17.8477C8.28059 18.4869 9.94226 18.6619 11.5731 18.3569C14.9623 17.721 17.6989 14.9044 18.2289 11.5069C18.6481 8.81685 17.7964 6.18269 15.8923 4.27852Z" fill="black" fill-opacity="0.4"/>
<mask id="mask0_2661_20571" style="mask-type:luminance" maskUnits="userSpaceOnUse" x="1" y="1" width="18" height="18">
<path fill-rule="evenodd" clip-rule="evenodd" d="M13.3331 11.0044C12.8731 11.0044 12.4998 10.631 12.4998 10.171C12.4998 9.71102 12.8731 9.33769 13.3331 9.33769C13.7931 9.33769 14.1664 9.71102 14.1664 10.171C14.1664 10.631 13.7931 11.0044 13.3331 11.0044ZM9.99975 11.0044C9.53975 11.0044 9.16642 10.631 9.16642 10.171C9.16642 9.71102 9.53975 9.33769 9.99975 9.33769C10.4598 9.33769 10.8331 9.71102 10.8331 10.171C10.8331 10.631 10.4598 11.0044 9.99975 11.0044ZM6.66642 11.0044C6.20642 11.0044 5.83309 10.631 5.83309 10.171C5.83309 9.71102 6.20642 9.33769 6.66642 9.33769C7.12642 9.33769 7.49975 9.71102 7.49975 10.171C7.49975 10.631 7.12642 11.0044 6.66642 11.0044ZM15.8923 4.27852C13.9889 2.37519 11.3548 1.52602 8.66392 1.94185C5.26642 2.47185 2.44975 5.20852 1.81392 8.59769C1.50809 10.2294 1.68392 11.891 2.32309 13.4019C2.40475 13.5935 2.42975 13.7735 2.39725 13.9344L1.68309 17.5077C1.62809 17.781 1.71392 18.0635 1.91059 18.2602C2.06809 18.4177 2.28059 18.5044 2.49975 18.5044C2.55392 18.5044 2.60892 18.4994 2.66309 18.4877L6.23225 17.7744C6.43725 17.7352 6.63642 17.7927 6.76892 17.8477C8.28059 18.4869 9.94226 18.6619 11.5731 18.3569C14.9623 17.721 17.6989 14.9044 18.2289 11.5069C18.6481 8.81685 17.7964 6.18269 15.8923 4.27852Z" fill="white"/>
</mask>
<g mask="url(#mask0_2661_20571)">
<rect y="0.171875" width="20" height="20" fill="black" fill-opacity="0.4"/>
</g>
</svg>
