<svg width="20" height="20" viewBox="0 0 20 20" fill="none" xmlns="http://www.w3.org/2000/svg">
<path fill-rule="evenodd" clip-rule="evenodd" d="M9.99998 8.75222L17.0933 5.77055C16.9716 5.64639 16.8341 5.53555 16.6675 5.45805L10.6675 2.64639C10.2466 2.45055 9.75331 2.45055 9.33248 2.64639L3.33248 5.45805C3.16581 5.53555 3.02831 5.64639 2.90665 5.77055L9.99998 8.75222ZM9.37498 9.85572L2.49998 6.96572V13.4066C2.49581 13.9407 2.81581 14.4307 3.32498 14.6716L9.32498 17.4824C9.33308 17.4862 9.34161 17.4887 9.35025 17.4913C9.3585 17.4938 9.36684 17.4962 9.37498 17.4999V9.85572ZM10.625 17.4974V9.85572L17.5 6.96572V13.4141C17.5 13.9466 17.1775 14.4341 16.6675 14.6716L10.6675 17.4824C10.6599 17.4862 10.6519 17.4886 10.6437 17.4911C10.6374 17.4929 10.6311 17.4949 10.625 17.4974Z" fill="#121212"/>
<mask id="mask0_2661_20164" style="mask-type:luminance" maskUnits="userSpaceOnUse" x="2" y="2" width="16" height="16">
<path fill-rule="evenodd" clip-rule="evenodd" d="M9.99998 8.75222L17.0933 5.77055C16.9716 5.64639 16.8341 5.53555 16.6675 5.45805L10.6675 2.64639C10.2466 2.45055 9.75331 2.45055 9.33248 2.64639L3.33248 5.45805C3.16581 5.53555 3.02831 5.64639 2.90665 5.77055L9.99998 8.75222ZM9.37498 9.85572L2.49998 6.96572V13.4066C2.49581 13.9407 2.81581 14.4307 3.32498 14.6716L9.32498 17.4824C9.33308 17.4862 9.34161 17.4887 9.35025 17.4913C9.3585 17.4938 9.36684 17.4962 9.37498 17.4999V9.85572ZM10.625 17.4974V9.85572L17.5 6.96572V13.4141C17.5 13.9466 17.1775 14.4341 16.6675 14.6716L10.6675 17.4824C10.6599 17.4862 10.6519 17.4886 10.6437 17.4911C10.6374 17.4929 10.6311 17.4949 10.625 17.4974Z" fill="white"/>
</mask>
<g mask="url(#mask0_2661_20164)">
<rect width="20" height="20" fill="#121212"/>
</g>
</svg>
