<svg width="20" height="21" viewBox="0 0 20 21" fill="none" xmlns="http://www.w3.org/2000/svg">
<path fill-rule="evenodd" clip-rule="evenodd" d="M13.3336 14.1927C13.3336 14.651 12.9586 15.026 12.5002 15.026C12.0419 15.026 11.6669 14.651 11.6669 14.1927V10.8594C11.6669 10.401 12.0419 10.026 12.5002 10.026C12.9586 10.026 13.3336 10.401 13.3336 10.8594V14.1927ZM8.33358 4.46604C8.33358 4.33688 8.51191 4.19271 8.75024 4.19271H11.2502C11.4886 4.19271 11.6669 4.33688 11.6669 4.46604V5.85938H8.33358V4.46604ZM8.33358 14.1927C8.33358 14.651 7.95858 15.026 7.50024 15.026C7.04191 15.026 6.66691 14.651 6.66691 14.1927V10.8594C6.66691 10.401 7.04191 10.026 7.50024 10.026C7.95858 10.026 8.33358 10.401 8.33358 10.8594V14.1927ZM17.5001 5.85921H16.6667H13.3334V4.46588C13.3334 3.39588 12.3992 2.52588 11.2501 2.52588H8.75008C7.60091 2.52588 6.66675 3.39588 6.66675 4.46588V5.85921H3.33341H2.50008C2.04175 5.85921 1.66675 6.23421 1.66675 6.69255C1.66675 7.15088 2.04175 7.52588 2.50008 7.52588H3.33341V16.6925C3.33341 18.0709 4.45508 19.1925 5.83341 19.1925H14.1667C15.5451 19.1925 16.6667 18.0709 16.6667 16.6925V7.52588H17.5001C17.9584 7.52588 18.3334 7.15088 18.3334 6.69255C18.3334 6.23421 17.9584 5.85921 17.5001 5.85921Z" fill="#FF6161"/>
<mask id="mask0_2661_20565" style="mask-type:luminance" maskUnits="userSpaceOnUse" x="1" y="2" width="18" height="18">
<path fill-rule="evenodd" clip-rule="evenodd" d="M13.3336 14.1927C13.3336 14.651 12.9586 15.026 12.5002 15.026C12.0419 15.026 11.6669 14.651 11.6669 14.1927V10.8594C11.6669 10.401 12.0419 10.026 12.5002 10.026C12.9586 10.026 13.3336 10.401 13.3336 10.8594V14.1927ZM8.33358 4.46604C8.33358 4.33688 8.51191 4.19271 8.75024 4.19271H11.2502C11.4886 4.19271 11.6669 4.33688 11.6669 4.46604V5.85938H8.33358V4.46604ZM8.33358 14.1927C8.33358 14.651 7.95858 15.026 7.50024 15.026C7.04191 15.026 6.66691 14.651 6.66691 14.1927V10.8594C6.66691 10.401 7.04191 10.026 7.50024 10.026C7.95858 10.026 8.33358 10.401 8.33358 10.8594V14.1927ZM17.5001 5.85921H16.6667H13.3334V4.46588C13.3334 3.39588 12.3992 2.52588 11.2501 2.52588H8.75008C7.60091 2.52588 6.66675 3.39588 6.66675 4.46588V5.85921H3.33341H2.50008C2.04175 5.85921 1.66675 6.23421 1.66675 6.69255C1.66675 7.15088 2.04175 7.52588 2.50008 7.52588H3.33341V16.6925C3.33341 18.0709 4.45508 19.1925 5.83341 19.1925H14.1667C15.5451 19.1925 16.6667 18.0709 16.6667 16.6925V7.52588H17.5001C17.9584 7.52588 18.3334 7.15088 18.3334 6.69255C18.3334 6.23421 17.9584 5.85921 17.5001 5.85921Z" fill="white"/>
</mask>
<g mask="url(#mask0_2661_20565)">
<rect y="0.859375" width="20" height="20" fill="#FF6161"/>
</g>
</svg>
