<svg width="20" height="21" viewBox="0 0 20 21" fill="none" xmlns="http://www.w3.org/2000/svg">
<path fill-rule="evenodd" clip-rule="evenodd" d="M14.9709 5.95141L12.7259 3.70641L11.1026 5.33058L13.3484 7.57641L14.9709 5.95141ZM4.24182 15.3402C4.21682 15.3427 4.19182 15.3436 4.16682 15.3436C3.94682 15.3436 3.73432 15.2569 3.57682 15.0994C3.40265 14.9244 3.31432 14.6811 3.33599 14.4352L3.65182 10.9602C3.68682 10.5794 3.85515 10.2194 4.12682 9.94856L11.6235 2.45189C12.2085 1.86439 13.2693 1.89356 13.8868 2.50939L16.1685 4.79106L16.1693 4.79189C16.8068 5.43023 16.8327 6.44523 16.226 7.05356L8.72849 14.5511C8.45765 14.8219 8.09849 14.9902 7.71682 15.0252L4.24182 15.3402ZM4.16662 17.0105H15.8333C16.2916 17.0105 16.6666 17.3855 16.6666 17.8439C16.6666 18.3022 16.2916 18.6772 15.8333 18.6772H4.16662C3.70828 18.6772 3.33328 18.3022 3.33328 17.8439C3.33328 17.3855 3.70828 17.0105 4.16662 17.0105Z" fill="black" fill-opacity="0.4"/>
<mask id="mask0_2661_20568" style="mask-type:luminance" maskUnits="userSpaceOnUse" x="3" y="2" width="14" height="17">
<path fill-rule="evenodd" clip-rule="evenodd" d="M14.9709 5.95141L12.7259 3.70641L11.1026 5.33058L13.3484 7.57641L14.9709 5.95141ZM4.24182 15.3402C4.21682 15.3427 4.19182 15.3436 4.16682 15.3436C3.94682 15.3436 3.73432 15.2569 3.57682 15.0994C3.40265 14.9244 3.31432 14.6811 3.33599 14.4352L3.65182 10.9602C3.68682 10.5794 3.85515 10.2194 4.12682 9.94856L11.6235 2.45189C12.2085 1.86439 13.2693 1.89356 13.8868 2.50939L16.1685 4.79106L16.1693 4.79189C16.8068 5.43023 16.8327 6.44523 16.226 7.05356L8.72849 14.5511C8.45765 14.8219 8.09849 14.9902 7.71682 15.0252L4.24182 15.3402ZM4.16662 17.0105H15.8333C16.2916 17.0105 16.6666 17.3855 16.6666 17.8439C16.6666 18.3022 16.2916 18.6772 15.8333 18.6772H4.16662C3.70828 18.6772 3.33328 18.3022 3.33328 17.8439C3.33328 17.3855 3.70828 17.0105 4.16662 17.0105Z" fill="white"/>
</mask>
<g mask="url(#mask0_2661_20568)">
<rect y="0.34375" width="20" height="20" fill="black" fill-opacity="0.4"/>
</g>
</svg>
