<svg width="20" height="21" viewBox="0 0 20 21" fill="none" xmlns="http://www.w3.org/2000/svg">
<path fill-rule="evenodd" clip-rule="evenodd" d="M11.254 4.3211H8.746C8.60744 2.90921 7.53302 1.84326 6.28332 1.84326C5.03362 1.84326 3.9592 2.90921 3.82064 4.3211H3.18598C2.15973 4.3211 1.32764 5.15305 1.32764 6.17945C1.32764 8.77102 1.32764 14.7379 1.32764 17.3295C1.32764 17.8223 1.52343 18.2951 1.87191 18.6436C2.22053 18.9921 2.69315 19.1878 3.18598 19.1878H16.8139C17.8403 19.1878 18.6722 18.3559 18.6722 17.3295V6.17945C18.6722 5.68661 18.4764 5.21385 18.128 4.86537C17.7795 4.5169 17.3067 4.3211 16.8139 4.3211H16.1794C16.0408 2.90921 14.9664 1.84326 13.7167 1.84326C12.467 1.84326 11.3926 2.90921 11.254 4.3211ZM10.5141 10.4501C10.399 10.279 10.2062 10.1762 10 10.1762C9.79366 10.1762 9.60098 10.279 9.48591 10.4501L8.53087 11.8709L6.88453 12.3401C6.68606 12.3967 6.52892 12.5482 6.46514 12.7445C6.40151 12.9407 6.43957 13.1557 6.56683 13.318L7.62281 14.6654L7.56037 16.3761C7.55294 16.5823 7.64853 16.7785 7.81534 16.8999C7.98229 17.021 8.19845 17.0513 8.39217 16.9804L10 16.3925L11.6077 16.9804C11.8014 17.0513 12.0177 17.021 12.1845 16.8999C12.3515 16.7785 12.4471 16.5823 12.4395 16.3761L12.377 14.6654L13.4332 13.318C13.5604 13.1557 13.5985 12.9407 13.5347 12.7445C13.4709 12.5482 13.3138 12.3967 13.1155 12.3401L11.4691 11.8709L10.5141 10.4501ZM12.7233 5.55995C12.9445 5.93221 13.2986 6.17945 13.7167 6.17945C14.0585 6.17945 14.336 6.45701 14.336 6.79894C14.336 7.14073 14.0585 7.41829 13.7167 7.41829C12.6576 7.41829 11.7244 6.6528 11.3799 5.55995H5.28992C5.51114 5.93221 5.86527 6.17945 6.28332 6.17945C6.6251 6.17945 6.90267 6.45701 6.90267 6.79894C6.90267 7.14073 6.6251 7.41829 6.28332 7.41829C5.22421 7.41829 4.29103 6.6528 3.94656 5.55995H3.18598C2.8439 5.55995 2.56663 5.83736 2.56663 6.17945V8.03779H17.4334V6.17945C17.4334 6.01517 17.3681 5.85758 17.2519 5.74147C17.1357 5.62521 16.9782 5.55995 16.8139 5.55995H12.7233ZM14.9307 4.3211C14.8189 3.6292 14.3386 3.08226 13.7167 3.08226C13.0947 3.08226 12.6143 3.6292 12.5025 4.3211H14.9307ZM7.49734 4.3211C7.38554 3.6292 6.90519 3.08226 6.28332 3.08226C5.66129 3.08226 5.18095 3.6292 5.06915 4.3211H7.49734Z" fill="black" fill-opacity="0.7"/>
</svg>
