<svg width="20" height="20" viewBox="0 0 20 20" fill="none" xmlns="http://www.w3.org/2000/svg">
<path fill-rule="evenodd" clip-rule="evenodd" d="M11.5861 18.3335C11.4077 18.3335 11.2311 18.2768 11.0836 18.1643L7.72857 15.6268C7.52024 15.4693 7.39774 15.2235 7.39774 14.9627V12.2343L3.42607 4.54933C3.29274 4.291 3.30357 3.98183 3.45524 3.7335C3.60607 3.48516 3.87607 3.3335 4.1669 3.3335H15.8336C16.1269 3.3335 16.3986 3.48766 16.5494 3.74016C16.6994 3.99183 16.7061 4.30516 16.5669 4.56266L12.4194 12.2418V17.5002C12.4194 17.816 12.2402 18.1052 11.9569 18.2468C11.8394 18.3043 11.7127 18.3335 11.5861 18.3335Z" fill="white"/>
<mask id="mask0_2661_20215" style="mask-type:luminance" maskUnits="userSpaceOnUse" x="3" y="3" width="14" height="16">
<path fill-rule="evenodd" clip-rule="evenodd" d="M11.5861 18.3335C11.4077 18.3335 11.2311 18.2768 11.0836 18.1643L7.72857 15.6268C7.52024 15.4693 7.39774 15.2235 7.39774 14.9627V12.2343L3.42607 4.54933C3.29274 4.291 3.30357 3.98183 3.45524 3.7335C3.60607 3.48516 3.87607 3.3335 4.1669 3.3335H15.8336C16.1269 3.3335 16.3986 3.48766 16.5494 3.74016C16.6994 3.99183 16.7061 4.30516 16.5669 4.56266L12.4194 12.2418V17.5002C12.4194 17.816 12.2402 18.1052 11.9569 18.2468C11.8394 18.3043 11.7127 18.3335 11.5861 18.3335Z" fill="white"/>
</mask>
<g mask="url(#mask0_2661_20215)">
<rect width="20" height="20" fill="white"/>
</g>
</svg>
