<svg width="20" height="21" viewBox="0 0 20 21" fill="none" xmlns="http://www.w3.org/2000/svg">
<path fill-rule="evenodd" clip-rule="evenodd" d="M10.0002 7.67188C9.54024 7.67188 9.16691 7.29854 9.16691 6.83854C9.16691 6.37854 9.54024 6.00521 10.0002 6.00521C10.4602 6.00521 10.8336 6.37854 10.8336 6.83854C10.8336 7.29854 10.4602 7.67188 10.0002 7.67188ZM10.8336 13.5052C10.8336 13.9652 10.4602 14.3385 10.0002 14.3385C9.54024 14.3385 9.16691 13.9652 9.16691 13.5052V9.33854C9.16691 8.87854 9.54024 8.50521 10.0002 8.50521C10.4602 8.50521 10.8336 8.87854 10.8336 9.33854V13.5052ZM10.0001 1.83838C5.39758 1.83838 1.66675 5.56921 1.66675 10.1717C1.66675 14.7742 5.39758 18.505 10.0001 18.505C14.6017 18.505 18.3334 14.7742 18.3334 10.1717C18.3334 5.56921 14.6017 1.83838 10.0001 1.83838Z" fill="black" fill-opacity="0.4"/>
<mask id="mask0_2661_20708" style="mask-type:luminance" maskUnits="userSpaceOnUse" x="1" y="1" width="18" height="18">
<path fill-rule="evenodd" clip-rule="evenodd" d="M10.0002 7.67188C9.54024 7.67188 9.16691 7.29854 9.16691 6.83854C9.16691 6.37854 9.54024 6.00521 10.0002 6.00521C10.4602 6.00521 10.8336 6.37854 10.8336 6.83854C10.8336 7.29854 10.4602 7.67188 10.0002 7.67188ZM10.8336 13.5052C10.8336 13.9652 10.4602 14.3385 10.0002 14.3385C9.54024 14.3385 9.16691 13.9652 9.16691 13.5052V9.33854C9.16691 8.87854 9.54024 8.50521 10.0002 8.50521C10.4602 8.50521 10.8336 8.87854 10.8336 9.33854V13.5052ZM10.0001 1.83838C5.39758 1.83838 1.66675 5.56921 1.66675 10.1717C1.66675 14.7742 5.39758 18.505 10.0001 18.505C14.6017 18.505 18.3334 14.7742 18.3334 10.1717C18.3334 5.56921 14.6017 1.83838 10.0001 1.83838Z" fill="white"/>
</mask>
<g mask="url(#mask0_2661_20708)">
<rect y="0.171875" width="20" height="20" fill="black" fill-opacity="0.4"/>
</g>
</svg>
