<svg width="20" height="20" viewBox="0 0 20 20" fill="none" xmlns="http://www.w3.org/2000/svg">
<path fill-rule="evenodd" clip-rule="evenodd" d="M8.2194 14.9999C7.9894 14.9999 7.7694 14.9049 7.6119 14.7374L3.5594 10.4216C3.24357 10.0866 3.26107 9.55906 3.59607 9.24406C3.9319 8.92906 4.4594 8.94572 4.77357 9.28072L8.21107 12.9399L15.2177 5.27156C15.5294 4.93072 16.0561 4.90822 16.3961 5.21822C16.7352 5.52822 16.7586 6.05572 16.4486 6.39489L8.8344 14.7282C8.67857 14.8999 8.4569 14.9982 8.22524 14.9999H8.2194Z" fill="#0EAB00"/>
<mask id="mask0_2661_20534" style="mask-type:luminance" maskUnits="userSpaceOnUse" x="3" y="5" width="14" height="10">
<path fill-rule="evenodd" clip-rule="evenodd" d="M8.2194 14.9999C7.9894 14.9999 7.7694 14.9049 7.6119 14.7374L3.5594 10.4216C3.24357 10.0866 3.26107 9.55906 3.59607 9.24406C3.9319 8.92906 4.4594 8.94572 4.77357 9.28072L8.21107 12.9399L15.2177 5.27156C15.5294 4.93072 16.0561 4.90822 16.3961 5.21822C16.7352 5.52822 16.7586 6.05572 16.4486 6.39489L8.8344 14.7282C8.67857 14.8999 8.4569 14.9982 8.22524 14.9999H8.2194Z" fill="white"/>
</mask>
<g mask="url(#mask0_2661_20534)">
<rect width="20" height="20" fill="#0EAB00"/>
</g>
</svg>
