<svg width="20" height="20" viewBox="0 0 20 20" fill="none" xmlns="http://www.w3.org/2000/svg">
<path fill-rule="evenodd" clip-rule="evenodd" d="M10.0002 7.5C9.54024 7.5 9.16691 7.12667 9.16691 6.66667C9.16691 6.20667 9.54024 5.83333 10.0002 5.83333C10.4602 5.83333 10.8336 6.20667 10.8336 6.66667C10.8336 7.12667 10.4602 7.5 10.0002 7.5ZM10.8336 13.3333C10.8336 13.7933 10.4602 14.1667 10.0002 14.1667C9.54024 14.1667 9.16691 13.7933 9.16691 13.3333V9.16667C9.16691 8.70667 9.54024 8.33333 10.0002 8.33333C10.4602 8.33333 10.8336 8.70667 10.8336 9.16667V13.3333ZM10.0001 1.6665C5.39758 1.6665 1.66675 5.39734 1.66675 9.99984C1.66675 14.6023 5.39758 18.3332 10.0001 18.3332C14.6017 18.3332 18.3334 14.6023 18.3334 9.99984C18.3334 5.39734 14.6017 1.6665 10.0001 1.6665Z" fill="black" fill-opacity="0.4"/>
<mask id="mask0_2661_20574" style="mask-type:luminance" maskUnits="userSpaceOnUse" x="1" y="1" width="18" height="18">
<path fill-rule="evenodd" clip-rule="evenodd" d="M10.0002 7.5C9.54024 7.5 9.16691 7.12667 9.16691 6.66667C9.16691 6.20667 9.54024 5.83333 10.0002 5.83333C10.4602 5.83333 10.8336 6.20667 10.8336 6.66667C10.8336 7.12667 10.4602 7.5 10.0002 7.5ZM10.8336 13.3333C10.8336 13.7933 10.4602 14.1667 10.0002 14.1667C9.54024 14.1667 9.16691 13.7933 9.16691 13.3333V9.16667C9.16691 8.70667 9.54024 8.33333 10.0002 8.33333C10.4602 8.33333 10.8336 8.70667 10.8336 9.16667V13.3333ZM10.0001 1.6665C5.39758 1.6665 1.66675 5.39734 1.66675 9.99984C1.66675 14.6023 5.39758 18.3332 10.0001 18.3332C14.6017 18.3332 18.3334 14.6023 18.3334 9.99984C18.3334 5.39734 14.6017 1.6665 10.0001 1.6665Z" fill="white"/>
</mask>
<g mask="url(#mask0_2661_20574)">
<rect width="20" height="20" fill="black" fill-opacity="0.4"/>
</g>
</svg>
