<svg width="20" height="21" viewBox="0 0 20 21" fill="none" xmlns="http://www.w3.org/2000/svg">
<path d="M14.9193 2.48877H5.08094C3.71996 2.48877 2.62134 3.57919 2.62134 4.92377V13.8685C2.62134 15.2131 3.71996 16.3117 5.08094 16.3117H5.70403C6.35173 16.3117 6.98302 16.5659 7.44215 17.025L8.84412 18.4106C9.48362 19.0419 10.5166 19.0419 11.1561 18.4106L12.5581 17.025C13.0172 16.5659 13.6485 16.3117 14.2962 16.3117H14.9193C16.2803 16.3117 17.3789 15.2131 17.3789 13.8685V4.92377C17.3789 3.57919 16.2803 2.48877 14.9193 2.48877ZM10.0001 5.39929C10.8856 5.39929 11.5989 6.12078 11.5989 6.99803C11.5989 7.86709 10.9102 8.56398 10.0575 8.59677C10.0247 8.59677 9.97553 8.59677 9.93454 8.59677C9.07368 8.56398 8.39319 7.86709 8.39319 6.99803C8.40139 6.12078 9.11468 5.39929 10.0001 5.39929ZM12.2548 12.8929C11.0168 13.7209 8.9835 13.7209 7.7455 12.8929C6.65508 12.1714 6.65508 10.9744 7.7455 10.2447C8.9917 9.41664 11.025 9.41664 12.2548 10.2447C13.3452 10.9744 13.3452 12.1632 12.2548 12.8929Z" fill="black" fill-opacity="0.7"/>
</svg>
