<svg width="23" height="23" viewBox="0 0 23 23" fill="none" xmlns="http://www.w3.org/2000/svg">
<g opacity="0.8">
<path fill-rule="evenodd" clip-rule="evenodd" d="M15.3332 10.5415C15.3332 12.6556 13.6139 14.3748 11.4998 14.3748C9.38575 14.3748 7.6665 12.6556 7.6665 10.5415V5.74984C7.6665 3.63575 9.38575 1.9165 11.4998 1.9165C13.6139 1.9165 15.3332 3.63575 15.3332 5.74984V10.5415ZM17.2498 9.58317C17.7798 9.58317 18.2082 10.0125 18.2082 10.5415C18.2082 13.9148 15.704 16.7055 12.4582 17.1732V19.1665H14.4755C14.9479 19.1665 15.3332 19.5518 15.3332 20.0242V20.2255C15.3332 20.6979 14.9479 21.0832 14.4755 21.0832H8.52421C8.05175 21.0832 7.6665 20.6979 7.6665 20.2255V20.0242C7.6665 19.5518 8.05175 19.1665 8.52421 19.1665H10.5415V17.1732C7.29563 16.7055 4.7915 13.9148 4.7915 10.5415C4.7915 10.0125 5.21988 9.58317 5.74984 9.58317C6.2798 9.58317 6.70817 10.0125 6.70817 10.5415C6.70817 13.1836 8.85771 15.3332 11.4998 15.3332C14.142 15.3332 16.2915 13.1836 16.2915 10.5415C16.2915 10.0125 16.7199 9.58317 17.2498 9.58317Z" fill="white"/>
<mask id="mask0_2661_20047" style="mask-type:luminance" maskUnits="userSpaceOnUse" x="4" y="1" width="15" height="21">
<path fill-rule="evenodd" clip-rule="evenodd" d="M15.3332 10.5415C15.3332 12.6556 13.6139 14.3748 11.4998 14.3748C9.38575 14.3748 7.6665 12.6556 7.6665 10.5415V5.74984C7.6665 3.63575 9.38575 1.9165 11.4998 1.9165C13.6139 1.9165 15.3332 3.63575 15.3332 5.74984V10.5415ZM17.2498 9.58317C17.7798 9.58317 18.2082 10.0125 18.2082 10.5415C18.2082 13.9148 15.704 16.7055 12.4582 17.1732V19.1665H14.4755C14.9479 19.1665 15.3332 19.5518 15.3332 20.0242V20.2255C15.3332 20.6979 14.9479 21.0832 14.4755 21.0832H8.52421C8.05175 21.0832 7.6665 20.6979 7.6665 20.2255V20.0242C7.6665 19.5518 8.05175 19.1665 8.52421 19.1665H10.5415V17.1732C7.29563 16.7055 4.7915 13.9148 4.7915 10.5415C4.7915 10.0125 5.21988 9.58317 5.74984 9.58317C6.2798 9.58317 6.70817 10.0125 6.70817 10.5415C6.70817 13.1836 8.85771 15.3332 11.4998 15.3332C14.142 15.3332 16.2915 13.1836 16.2915 10.5415C16.2915 10.0125 16.7199 9.58317 17.2498 9.58317Z" fill="white"/>
</mask>
<g mask="url(#mask0_2661_20047)">
<rect width="23" height="23" fill="white"/>
</g>
</g>
</svg>
