<svg width="20" height="20" viewBox="0 0 20 20" fill="none" xmlns="http://www.w3.org/2000/svg">
<path fill-rule="evenodd" clip-rule="evenodd" d="M9.99998 5.83333C10.92 5.83333 11.6666 5.08667 11.6666 4.16667C11.6666 3.24667 10.92 2.5 9.99998 2.5C9.07998 2.5 8.33331 3.24667 8.33331 4.16667C8.33331 5.08667 9.07998 5.83333 9.99998 5.83333ZM9.99998 8.33333C9.07998 8.33333 8.33331 9.08 8.33331 10C8.33331 10.92 9.07998 11.6667 9.99998 11.6667C10.92 11.6667 11.6666 10.92 11.6666 10C11.6666 9.08 10.92 8.33333 9.99998 8.33333ZM8.33331 15.8333C8.33331 14.9133 9.07998 14.1667 9.99998 14.1667C10.92 14.1667 11.6666 14.9133 11.6666 15.8333C11.6666 16.7533 10.92 17.5 9.99998 17.5C9.07998 17.5 8.33331 16.7533 8.33331 15.8333Z" fill="black" fill-opacity="0.4"/>
<mask id="mask0_2661_20306" style="mask-type:luminance" maskUnits="userSpaceOnUse" x="8" y="2" width="4" height="16">
<path fill-rule="evenodd" clip-rule="evenodd" d="M9.99998 5.83333C10.92 5.83333 11.6666 5.08667 11.6666 4.16667C11.6666 3.24667 10.92 2.5 9.99998 2.5C9.07998 2.5 8.33331 3.24667 8.33331 4.16667C8.33331 5.08667 9.07998 5.83333 9.99998 5.83333ZM9.99998 8.33333C9.07998 8.33333 8.33331 9.08 8.33331 10C8.33331 10.92 9.07998 11.6667 9.99998 11.6667C10.92 11.6667 11.6666 10.92 11.6666 10C11.6666 9.08 10.92 8.33333 9.99998 8.33333ZM8.33331 15.8333C8.33331 14.9133 9.07998 14.1667 9.99998 14.1667C10.92 14.1667 11.6666 14.9133 11.6666 15.8333C11.6666 16.7533 10.92 17.5 9.99998 17.5C9.07998 17.5 8.33331 16.7533 8.33331 15.8333Z" fill="white"/>
</mask>
<g mask="url(#mask0_2661_20306)">
</g>
</svg>
