<svg width="12" height="13" viewBox="0 0 12 13" fill="none" xmlns="http://www.w3.org/2000/svg">
<path fill-rule="evenodd" clip-rule="evenodd" d="M10.4961 3.9815C10.4951 3.9455 10.4846 3.9115 10.4751 3.877C10.4676 3.848 10.4641 3.8185 10.4516 3.792C10.4401 3.766 10.4206 3.745 10.4036 3.721C10.3826 3.6905 10.3636 3.66 10.3366 3.635C10.3321 3.6305 10.3301 3.6245 10.3251 3.6205C10.3071 3.605 10.2851 3.5995 10.2656 3.587C10.2356 3.5675 10.2061 3.5475 10.1721 3.5345C10.1386 3.5225 10.1056 3.5195 10.0711 3.5145C10.0471 3.511 10.0256 3.5 10.0001 3.5H7.50013C7.22363 3.5 7.00013 3.724 7.00013 4C7.00013 4.276 7.22363 4.5 7.50013 4.5H8.91313L6.89513 6.854L4.75713 5.5715C4.54563 5.4435 4.27363 5.4905 4.11563 5.68L1.61563 8.68C1.43913 8.892 1.46763 9.2075 1.67963 9.384C1.77363 9.462 1.88663 9.5 1.99963 9.5C2.14313 9.5 2.28513 9.439 2.38413 9.32L4.61013 6.649L6.74263 7.929C6.95213 8.0545 7.22113 8.0105 7.37963 7.8255L9.50013 5.3515V6.5C9.50013 6.776 9.72363 7 10.0001 7C10.2766 7 10.5001 6.776 10.5001 6.5V4C10.5001 3.9935 10.4966 3.988 10.4961 3.9815Z" fill="#0EAB00"/>
<mask id="mask0_2661_20161" style="mask-type:luminance" maskUnits="userSpaceOnUse" x="1" y="3" width="10" height="7">
<path fill-rule="evenodd" clip-rule="evenodd" d="M10.4961 3.9815C10.4951 3.9455 10.4846 3.9115 10.4751 3.877C10.4676 3.848 10.4641 3.8185 10.4516 3.792C10.4401 3.766 10.4206 3.745 10.4036 3.721C10.3826 3.6905 10.3636 3.66 10.3366 3.635C10.3321 3.6305 10.3301 3.6245 10.3251 3.6205C10.3071 3.605 10.2851 3.5995 10.2656 3.587C10.2356 3.5675 10.2061 3.5475 10.1721 3.5345C10.1386 3.5225 10.1056 3.5195 10.0711 3.5145C10.0471 3.511 10.0256 3.5 10.0001 3.5H7.50013C7.22363 3.5 7.00013 3.724 7.00013 4C7.00013 4.276 7.22363 4.5 7.50013 4.5H8.91313L6.89513 6.854L4.75713 5.5715C4.54563 5.4435 4.27363 5.4905 4.11563 5.68L1.61563 8.68C1.43913 8.892 1.46763 9.2075 1.67963 9.384C1.77363 9.462 1.88663 9.5 1.99963 9.5C2.14313 9.5 2.28513 9.439 2.38413 9.32L4.61013 6.649L6.74263 7.929C6.95213 8.0545 7.22113 8.0105 7.37963 7.8255L9.50013 5.3515V6.5C9.50013 6.776 9.72363 7 10.0001 7C10.2766 7 10.5001 6.776 10.5001 6.5V4C10.5001 3.9935 10.4966 3.988 10.4961 3.9815Z" fill="white"/>
</mask>
<g mask="url(#mask0_2661_20161)">
<rect y="0.5" width="12" height="12" fill="#0EAB00"/>
</g>
</svg>
