<svg width="16" height="16" viewBox="0 0 16 16" fill="none" xmlns="http://www.w3.org/2000/svg">
<path fill-rule="evenodd" clip-rule="evenodd" d="M6.19569 14.0002C5.0917 14.0002 4.04236 13.5562 3.24103 12.7502C1.64903 11.1482 1.5837 8.60816 3.09503 7.0875L8.01903 2.13416C8.53169 1.61816 9.2237 1.3335 9.96703 1.3335C10.7624 1.3335 11.5184 1.65283 12.095 2.23283C13.2424 3.38683 13.2864 5.22083 12.1924 6.32083L7.26236 11.2735C6.94303 11.5955 6.51303 11.7722 6.05169 11.7722C5.56436 11.7722 5.10236 11.5775 4.7517 11.2248C4.0497 10.5175 4.0277 9.39016 4.70303 8.71016L9.25303 4.14016C9.51303 3.87883 9.93436 3.8775 10.1957 4.1375C10.4564 4.3975 10.4577 4.8195 10.1977 5.08016L5.64836 9.65083C5.48836 9.81216 5.51036 10.0968 5.6977 10.2848C5.79503 10.3828 5.92436 10.4388 6.05169 10.4388C6.12503 10.4388 6.23036 10.4208 6.31703 10.3335L11.247 5.38083C11.825 4.79883 11.7817 3.80883 11.1497 3.17283C10.545 2.56483 9.51903 2.51683 8.96436 3.07416L4.04036 8.0275C3.04436 9.0295 3.1097 10.7268 4.18703 11.8102C4.7357 12.3628 5.44903 12.6668 6.19569 12.6668C6.86303 12.6668 7.4817 12.4148 7.93636 11.9575L12.861 7.00416C13.1204 6.7435 13.5424 6.7415 13.8037 7.0015C14.0644 7.2615 14.0657 7.68283 13.8064 7.94416L8.88169 12.8975C8.17503 13.6082 7.22103 14.0002 6.19569 14.0002Z" fill="black" fill-opacity="0.4"/>
<mask id="mask0_2661_20318" style="mask-type:luminance" maskUnits="userSpaceOnUse" x="2" y="1" width="12" height="13">
<path fill-rule="evenodd" clip-rule="evenodd" d="M6.19569 14.0002C5.0917 14.0002 4.04236 13.5562 3.24103 12.7502C1.64903 11.1482 1.5837 8.60816 3.09503 7.0875L8.01903 2.13416C8.53169 1.61816 9.2237 1.3335 9.96703 1.3335C10.7624 1.3335 11.5184 1.65283 12.095 2.23283C13.2424 3.38683 13.2864 5.22083 12.1924 6.32083L7.26236 11.2735C6.94303 11.5955 6.51303 11.7722 6.05169 11.7722C5.56436 11.7722 5.10236 11.5775 4.7517 11.2248C4.0497 10.5175 4.0277 9.39016 4.70303 8.71016L9.25303 4.14016C9.51303 3.87883 9.93436 3.8775 10.1957 4.1375C10.4564 4.3975 10.4577 4.8195 10.1977 5.08016L5.64836 9.65083C5.48836 9.81216 5.51036 10.0968 5.6977 10.2848C5.79503 10.3828 5.92436 10.4388 6.05169 10.4388C6.12503 10.4388 6.23036 10.4208 6.31703 10.3335L11.247 5.38083C11.825 4.79883 11.7817 3.80883 11.1497 3.17283C10.545 2.56483 9.51903 2.51683 8.96436 3.07416L4.04036 8.0275C3.04436 9.0295 3.1097 10.7268 4.18703 11.8102C4.7357 12.3628 5.44903 12.6668 6.19569 12.6668C6.86303 12.6668 7.4817 12.4148 7.93636 11.9575L12.861 7.00416C13.1204 6.7435 13.5424 6.7415 13.8037 7.0015C14.0644 7.2615 14.0657 7.68283 13.8064 7.94416L8.88169 12.8975C8.17503 13.6082 7.22103 14.0002 6.19569 14.0002Z" fill="white"/>
</mask>
<g mask="url(#mask0_2661_20318)">
<rect width="16" height="16" fill="black" fill-opacity="0.4"/>
</g>
</svg>
