<svg width="20" height="21" viewBox="0 0 20 21" fill="none" xmlns="http://www.w3.org/2000/svg">
<path fill-rule="evenodd" clip-rule="evenodd" d="M13.5798 8.69202L9.77314 13.692C9.61647 13.8979 9.37397 14.0195 9.11564 14.0212H9.10981C8.85397 14.0212 8.61231 13.9029 8.45397 13.7012L6.42731 11.112C6.14398 10.7504 6.20731 10.2262 6.56981 9.94286C6.93148 9.65869 7.45647 9.72202 7.73981 10.0854L9.10064 11.8237L12.254 7.68286C12.5323 7.31702 13.0548 7.24536 13.4223 7.52452C13.7881 7.80369 13.859 8.32619 13.5798 8.69202ZM10.0006 2.35449C5.39807 2.35449 1.66724 6.08533 1.66724 10.6878C1.66724 15.2895 5.39807 19.0212 10.0006 19.0212C14.6031 19.0212 18.3339 15.2895 18.3339 10.6878C18.3339 6.08533 14.6031 2.35449 10.0006 2.35449Z" fill="black" fill-opacity="0.4"/>
<mask id="mask0_2661_20577" style="mask-type:luminance" maskUnits="userSpaceOnUse" x="1" y="2" width="18" height="18">
<path fill-rule="evenodd" clip-rule="evenodd" d="M13.5798 8.69202L9.77314 13.692C9.61647 13.8979 9.37397 14.0195 9.11564 14.0212H9.10981C8.85397 14.0212 8.61231 13.9029 8.45397 13.7012L6.42731 11.112C6.14398 10.7504 6.20731 10.2262 6.56981 9.94286C6.93148 9.65869 7.45647 9.72202 7.73981 10.0854L9.10064 11.8237L12.254 7.68286C12.5323 7.31702 13.0548 7.24536 13.4223 7.52452C13.7881 7.80369 13.859 8.32619 13.5798 8.69202ZM10.0006 2.35449C5.39807 2.35449 1.66724 6.08533 1.66724 10.6878C1.66724 15.2895 5.39807 19.0212 10.0006 19.0212C14.6031 19.0212 18.3339 15.2895 18.3339 10.6878C18.3339 6.08533 14.6031 2.35449 10.0006 2.35449Z" fill="white"/>
</mask>
<g mask="url(#mask0_2661_20577)">
<rect y="0.6875" width="20" height="20" fill="black" fill-opacity="0.4"/>
</g>
</svg>
