<svg width="20" height="20" viewBox="0 0 20 20" fill="none" xmlns="http://www.w3.org/2000/svg">
<path fill-rule="evenodd" clip-rule="evenodd" d="M16.6157 3.42588C16.9332 3.34421 17.259 3.41504 17.5148 3.61338C17.7707 3.81254 17.9165 4.11254 17.9165 4.43504V14.1734C17.9165 14.6492 17.5957 15.0642 17.1348 15.1825L10.8332 16.8V4.91171L16.6157 3.42588ZM3.38183 3.42543L9.16683 4.91126V16.8004L2.86516 15.1821C2.40516 15.0646 2.0835 14.6496 2.0835 14.1729V4.43543C2.0835 4.1121 2.23016 3.81293 2.48516 3.61293C2.74016 3.41543 3.06766 3.34626 3.38183 3.42543Z" fill="#FFE58E"/>
<mask id="mask0_2661_20057" style="mask-type:luminance" maskUnits="userSpaceOnUse" x="2" y="3" width="16" height="14">
<path fill-rule="evenodd" clip-rule="evenodd" d="M16.6157 3.42588C16.9332 3.34421 17.259 3.41504 17.5148 3.61338C17.7707 3.81254 17.9165 4.11254 17.9165 4.43504V14.1734C17.9165 14.6492 17.5957 15.0642 17.1348 15.1825L10.8332 16.8V4.91171L16.6157 3.42588ZM3.38183 3.42543L9.16683 4.91126V16.8004L2.86516 15.1821C2.40516 15.0646 2.0835 14.6496 2.0835 14.1729V4.43543C2.0835 4.1121 2.23016 3.81293 2.48516 3.61293C2.74016 3.41543 3.06766 3.34626 3.38183 3.42543Z" fill="white"/>
</mask>
<g mask="url(#mask0_2661_20057)">
<rect width="20" height="20" fill="#FFE58E"/>
</g>
</svg>
