<svg width="20" height="20" viewBox="0 0 20 20" fill="none" xmlns="http://www.w3.org/2000/svg">
<path fill-rule="evenodd" clip-rule="evenodd" d="M13.3332 9.1665H10.8332V6.6665C10.8332 6.20567 10.4598 5.83317 9.99984 5.83317C9.53984 5.83317 9.1665 6.20567 9.1665 6.6665V9.99984C9.1665 10.4607 9.53984 10.8332 9.99984 10.8332H13.3332C13.794 10.8332 14.1665 10.4607 14.1665 9.99984C14.1665 9.539 13.794 9.1665 13.3332 9.1665ZM9.99984 16.6665C6.324 16.6665 3.33317 13.6757 3.33317 9.99984C3.33317 6.324 6.324 3.33317 9.99984 3.33317C13.6757 3.33317 16.6665 6.324 16.6665 9.99984C16.6665 13.6757 13.6757 16.6665 9.99984 16.6665ZM9.99984 1.6665C5.40484 1.6665 1.6665 5.40484 1.6665 9.99984C1.6665 14.5948 5.40484 18.3332 9.99984 18.3332C14.5948 18.3332 18.3332 14.5948 18.3332 9.99984C18.3332 5.40484 14.5948 1.6665 9.99984 1.6665Z" fill="#FF6161"/>
<mask id="mask0_2661_20083" style="mask-type:luminance" maskUnits="userSpaceOnUse" x="1" y="1" width="18" height="18">
<path fill-rule="evenodd" clip-rule="evenodd" d="M13.3332 9.1665H10.8332V6.6665C10.8332 6.20567 10.4598 5.83317 9.99984 5.83317C9.53984 5.83317 9.1665 6.20567 9.1665 6.6665V9.99984C9.1665 10.4607 9.53984 10.8332 9.99984 10.8332H13.3332C13.794 10.8332 14.1665 10.4607 14.1665 9.99984C14.1665 9.539 13.794 9.1665 13.3332 9.1665ZM9.99984 16.6665C6.324 16.6665 3.33317 13.6757 3.33317 9.99984C3.33317 6.324 6.324 3.33317 9.99984 3.33317C13.6757 3.33317 16.6665 6.324 16.6665 9.99984C16.6665 13.6757 13.6757 16.6665 9.99984 16.6665ZM9.99984 1.6665C5.40484 1.6665 1.6665 5.40484 1.6665 9.99984C1.6665 14.5948 5.40484 18.3332 9.99984 18.3332C14.5948 18.3332 18.3332 14.5948 18.3332 9.99984C18.3332 5.40484 14.5948 1.6665 9.99984 1.6665Z" fill="white"/>
</mask>
<g mask="url(#mask0_2661_20083)">
<rect width="20" height="20" fill="#FF6161"/>
</g>
</svg>
