<svg width="33" height="32" viewBox="0 0 33 32" fill="none" xmlns="http://www.w3.org/2000/svg">
<path d="M16.5 2C8.76811 2 2.5 8.26811 2.5 16C2.5 23.7319 8.76811 30.0001 16.5 30.0001C24.2319 30.0001 30.5 23.7319 30.5 16C30.5 8.26811 24.2319 2 16.5 2Z" fill="url(#paint0_linear_1_313)"/>
<path d="M16.5 24.9427C11.5611 24.9427 7.55725 20.9389 7.55725 16C7.55725 11.0611 11.5611 7.05725 16.5 7.05725C21.4389 7.05725 25.4427 11.0611 25.4427 16C25.4427 20.9389 21.4389 24.9427 16.5 24.9427Z" fill="white"/>
<path d="M8.13257 16H16.5V7.63257C11.8788 7.63257 8.13257 11.3789 8.13257 16ZM16.5 16V24.3675C21.1211 24.3675 24.8674 20.6212 24.8674 16H16.5Z" fill="url(#paint1_linear_1_313)"/>
<path fill-rule="evenodd" clip-rule="evenodd" d="M8.74338 7.35939C9.17356 7.09269 9.63177 7.17952 9.9282 7.46764C10.3837 7.91038 10.3167 8.4223 9.88342 8.93864L7.98716 11.1984L5.16052 8.82656L6.95866 6.68369C7.33082 6.24016 7.85117 5.88596 8.34561 6.30084C8.35475 6.30851 8.36358 6.31588 8.37213 6.32301C8.50652 6.43513 8.57413 6.49152 8.74836 6.80924C8.79199 6.92915 8.82555 7.14645 8.74338 7.35939ZM7.94135 7.22357C7.75948 7.07102 7.4767 7.06489 7.35157 7.21404L6.27155 8.50111L6.93966 9.06176L8.00749 7.78919C8.14178 7.62923 8.14129 7.39136 7.94135 7.22357ZM8.12564 10.0569L9.25148 8.71526C9.401 8.5371 9.37939 8.25948 9.16124 8.07652C8.96851 7.91474 8.68276 7.95922 8.5546 8.11196L7.41966 9.46457L8.12564 10.0569Z" fill="white"/>
<path d="M17.9392 3.87641L16.9684 6.44939H16.1625L15.1917 3.87641V6.44939H14.454V2.7644H15.5624L16.5654 5.38915L17.5685 2.7644H18.6769V6.44939H17.9392V3.87641Z" fill="white"/>
<path d="M25.4985 9.949L26.8876 7.98247L26.2759 7.2271L24.0635 8.1769L25.5112 6.28313L24.9411 5.57903L22.6292 8.5527L23.3049 9.38041L25.4888 8.4817L25.4967 8.49147L24.1636 10.4408L24.8327 11.2738L28.2221 9.63078L27.6519 8.92669L25.4985 9.949Z" fill="white"/>
<defs>
<linearGradient id="paint0_linear_1_313" x1="6.77673" y1="6.2767" x2="25.6832" y2="26.2635" gradientUnits="userSpaceOnUse">
<stop offset="0.0273393" stop-color="#949AA0"/>
<stop offset="0.403335" stop-color="#1A1D1E"/>
<stop offset="1" stop-color="#040606"/>
</linearGradient>
<linearGradient id="paint1_linear_1_313" x1="16.5" y1="7.63257" x2="16.5" y2="24.3675" gradientUnits="userSpaceOnUse">
<stop stop-color="#7CD1F4"/>
<stop offset="1" stop-color="#1274B9"/>
</linearGradient>
</defs>
</svg>
