<svg width="33" height="32" viewBox="0 0 33 32" fill="none" xmlns="http://www.w3.org/2000/svg">
<path d="M30.5014 16.3114C30.5014 15.1603 30.4061 14.3203 30.1998 13.4492H16.7871V18.6447H24.6601C24.5014 19.9359 23.6442 21.8803 21.7394 23.1869L21.7127 23.3609L25.9536 26.5805L26.2474 26.6092C28.9458 24.167 30.5014 20.5736 30.5014 16.3114Z" fill="#4285F4"/>
<path d="M16.7853 29.9998C20.6424 29.9998 23.8804 28.7553 26.2456 26.6086L21.7377 23.1863C20.5313 24.0108 18.9123 24.5863 16.7853 24.5863C13.0076 24.5863 9.80128 22.1441 8.65832 18.7686L8.49078 18.7825L4.08111 22.127L4.02344 22.2841C6.37261 26.8574 11.198 29.9998 16.7853 29.9998Z" fill="#34A853"/>
<path d="M8.66061 18.769C8.35903 17.8979 8.1845 16.9645 8.1845 16.0001C8.1845 15.0356 8.35903 14.1023 8.64475 13.2312L8.63676 13.0456L4.17181 9.64746L4.02572 9.71556C3.05751 11.6134 2.50195 13.7445 2.50195 16.0001C2.50195 18.2556 3.05751 20.3867 4.02572 22.2845L8.66061 18.769Z" fill="#FBBC05"/>
<path d="M16.7854 7.4133C19.4679 7.4133 21.2774 8.54885 22.3092 9.4978L26.3409 5.64C23.8648 3.38445 20.6425 2 16.7854 2C11.198 2 6.37262 5.1422 4.02344 9.71549L8.64247 13.2311C9.80131 9.85555 13.0076 7.4133 16.7854 7.4133Z" fill="#EB4335"/>
</svg>
