<svg width="33" height="32" viewBox="0 0 33 32" fill="none" xmlns="http://www.w3.org/2000/svg">
<circle cx="16.5" cy="16" r="14" fill="#0EAB00"/>
<path d="M22.8643 21.623C22.6252 22.0025 22.1149 22.1087 21.7163 21.881C18.575 20.0593 14.6364 19.6494 9.98023 20.6514C9.53375 20.7425 9.08728 20.4844 8.9916 20.0593C8.89593 19.6343 9.167 19.2092 9.61348 19.1181C14.7002 18.0099 19.0693 18.4805 22.5773 20.5299C22.976 20.7576 23.1035 21.2434 22.8643 21.623ZM24.4908 18.1617C24.1878 18.6323 23.55 18.769 23.0557 18.4957C19.4679 16.3856 13.9985 15.7783 9.75699 17.008C9.1989 17.1598 8.62485 16.8714 8.46539 16.3552C8.30594 15.8239 8.6089 15.2774 9.167 15.1256C14.0145 13.7289 20.042 14.3969 24.1719 16.8106C24.6343 17.0839 24.7938 17.6911 24.4908 18.1617ZM24.6343 14.5487C20.329 12.1197 13.2332 11.892 9.11917 13.0761C8.46539 13.2735 7.76378 12.9243 7.55649 12.2867C7.3492 11.6643 7.73189 10.9964 8.38567 10.799C13.1056 9.43274 20.9509 9.70599 25.894 12.4993C26.484 12.8332 26.6754 13.5619 26.3246 14.1236C25.9897 14.7005 25.2243 14.8978 24.6343 14.5487Z" fill="white"/>
</svg>
