<svg width="17" height="16" viewBox="0 0 17 16" fill="none" xmlns="http://www.w3.org/2000/svg">
<path fill-rule="evenodd" clip-rule="evenodd" d="M6.69569 14.0002C5.5917 14.0002 4.54236 13.5562 3.74103 12.7502C2.14903 11.1482 2.0837 8.60816 3.59503 7.0875L8.51903 2.13416C9.03169 1.61816 9.7237 1.3335 10.467 1.3335C11.2624 1.3335 12.0184 1.65283 12.595 2.23283C13.7424 3.38683 13.7864 5.22083 12.6924 6.32083L7.76236 11.2735C7.44303 11.5955 7.01303 11.7722 6.55169 11.7722C6.06436 11.7722 5.60236 11.5775 5.2517 11.2248C4.5497 10.5175 4.5277 9.39016 5.20303 8.71016L9.75303 4.14016C10.013 3.87883 10.4344 3.8775 10.6957 4.1375C10.9564 4.3975 10.9577 4.8195 10.6977 5.08016L6.14836 9.65083C5.98836 9.81216 6.01036 10.0968 6.1977 10.2848C6.29503 10.3828 6.42436 10.4388 6.55169 10.4388C6.62503 10.4388 6.73036 10.4208 6.81703 10.3335L11.747 5.38083C12.325 4.79883 12.2817 3.80883 11.6497 3.17283C11.045 2.56483 10.019 2.51683 9.46436 3.07416L4.54036 8.0275C3.54436 9.0295 3.6097 10.7268 4.68703 11.8102C5.2357 12.3628 5.94903 12.6668 6.69569 12.6668C7.36303 12.6668 7.9817 12.4148 8.43636 11.9575L13.361 7.00416C13.6204 6.7435 14.0424 6.7415 14.3037 7.0015C14.5644 7.2615 14.5657 7.68283 14.3064 7.94416L9.38169 12.8975C8.67503 13.6082 7.72103 14.0002 6.69569 14.0002Z" fill="white" fill-opacity="0.6"/>
<mask id="mask0_2661_21182" style="mask-type:luminance" maskUnits="userSpaceOnUse" x="2" y="1" width="13" height="13">
<path fill-rule="evenodd" clip-rule="evenodd" d="M6.69569 14.0002C5.5917 14.0002 4.54236 13.5562 3.74103 12.7502C2.14903 11.1482 2.0837 8.60816 3.59503 7.0875L8.51903 2.13416C9.03169 1.61816 9.7237 1.3335 10.467 1.3335C11.2624 1.3335 12.0184 1.65283 12.595 2.23283C13.7424 3.38683 13.7864 5.22083 12.6924 6.32083L7.76236 11.2735C7.44303 11.5955 7.01303 11.7722 6.55169 11.7722C6.06436 11.7722 5.60236 11.5775 5.2517 11.2248C4.5497 10.5175 4.5277 9.39016 5.20303 8.71016L9.75303 4.14016C10.013 3.87883 10.4344 3.8775 10.6957 4.1375C10.9564 4.3975 10.9577 4.8195 10.6977 5.08016L6.14836 9.65083C5.98836 9.81216 6.01036 10.0968 6.1977 10.2848C6.29503 10.3828 6.42436 10.4388 6.55169 10.4388C6.62503 10.4388 6.73036 10.4208 6.81703 10.3335L11.747 5.38083C12.325 4.79883 12.2817 3.80883 11.6497 3.17283C11.045 2.56483 10.019 2.51683 9.46436 3.07416L4.54036 8.0275C3.54436 9.0295 3.6097 10.7268 4.68703 11.8102C5.2357 12.3628 5.94903 12.6668 6.69569 12.6668C7.36303 12.6668 7.9817 12.4148 8.43636 11.9575L13.361 7.00416C13.6204 6.7435 14.0424 6.7415 14.3037 7.0015C14.5644 7.2615 14.5657 7.68283 14.3064 7.94416L9.38169 12.8975C8.67503 13.6082 7.72103 14.0002 6.69569 14.0002Z" fill="white"/>
</mask>
<g mask="url(#mask0_2661_21182)">
<rect x="0.5" width="16" height="16" fill="white" fill-opacity="0.6"/>
</g>
</svg>
