<svg width="17" height="16" viewBox="0 0 17 16" fill="none" xmlns="http://www.w3.org/2000/svg">
<path d="M8.49837 0.997559C4.64766 0.997559 1.49707 4.14814 1.49707 7.99886C1.49707 9.60916 2.05717 11.1494 3.10737 12.4097L1.70711 13.8099C1.42706 14.09 1.42706 14.5101 1.70711 14.7901C1.84714 14.9302 1.98716 15.0002 2.1972 15.0002H8.49837C12.3491 15.0002 15.4997 11.8496 15.4997 7.99886C15.4997 4.14814 12.3491 0.997559 8.49837 0.997559ZM9.1985 10.0993H4.99772C4.57764 10.0993 4.29759 9.8192 4.29759 9.39912C4.29759 8.97904 4.57764 8.69899 4.99772 8.69899H9.1985C9.61858 8.69899 9.89863 8.97904 9.89863 9.39912C9.89863 9.8192 9.61858 10.0993 9.1985 10.0993ZM11.999 7.29873H4.99772C4.57764 7.29873 4.29759 7.01868 4.29759 6.5986C4.29759 6.17852 4.57764 5.89847 4.99772 5.89847H11.999C12.4191 5.89847 12.6992 6.17852 12.6992 6.5986C12.6992 7.01868 12.4191 7.29873 11.999 7.29873Z" fill="white" fill-opacity="0.8"/>
</svg>
