<svg width="66" height="34" viewBox="0 0 66 34" fill="none" xmlns="http://www.w3.org/2000/svg">
<path d="M1.07812 13.9321V33.6689H7.93121V13.9321V7.90134L1.07812 13.9321Z" fill="#25ABE3"/>
<path d="M47.9532 7.90134H43.2931L37.5366 24.8113L34.5212 33.6689H40.826L45.7603 18.8663L48.7896 10.3684L47.9532 7.90134Z" fill="#25ABE3"/>
<path d="M58.6441 7.90134L53.4357 24.0746L50.4204 33.6689H57.2734L65.4972 7.90134H58.6441Z" fill="#25ABE3"/>
<path d="M16.7032 0.5V7.90134H23.5563V0.5H16.7032Z" fill="#25ABE3"/>
<path d="M7.93121 13.9321H16.7032V33.6689H23.5563V13.9321H28.2164L34.5212 33.6689L37.5366 24.8113L32.6023 7.90134H23.5563H16.7032H7.93121V13.9321Z" fill="#1375BE"/>
<path d="M45.7603 18.8663L50.4204 33.6689L53.4357 24.0746L48.7896 10.3684L45.7603 18.8663Z" fill="#0E75BE"/>
<circle cx="3.78948" cy="3.78948" r="3.28948" fill="#26AFE9"/>
</svg>
